<?xml version="1.0" encoding="UTF-8" standalone="no"?>
<svg
   xmlns:dc="http://purl.org/dc/elements/1.1/"
   xmlns:cc="http://creativecommons.org/ns#"
   xmlns:rdf="http://www.w3.org/1999/02/22-rdf-syntax-ns#"
   xmlns:svg="http://www.w3.org/2000/svg"
   xmlns="http://www.w3.org/2000/svg"
   xmlns:sodipodi="http://sodipodi.sourceforge.net/DTD/sodipodi-0.dtd"
   xmlns:inkscape="http://www.inkscape.org/namespaces/inkscape"
   width="512"
   height="512"
   viewBox="0 0 135.46666 135.46666"
   version="1.1"
   id="svg8"
   inkscape:version="1.0.1 (3bc2e813f5, 2020-09-07)"
   sodipodi:docname="appconfig.svg">
  <defs
     id="defs2">
    <style
       id="style880">.a{fill:none;stroke:#000000;stroke-linecap:round;stroke-linejoin:round;}</style>
  </defs>
  <sodipodi:namedview
     id="base"
     pagecolor="#ffffff"
     bordercolor="#666666"
     borderopacity="1.0"
     inkscape:pageopacity="0.0"
     inkscape:pageshadow="2"
     inkscape:zoom="1.4"
     inkscape:cx="406.87386"
     inkscape:cy="327.30725"
     inkscape:document-units="px"
     inkscape:current-layer="g844"
     inkscape:document-rotation="0"
     showgrid="false"
     units="px"
     inkscape:window-width="2434"
     inkscape:window-height="1534"
     inkscape:window-x="4235"
     inkscape:window-y="357"
     inkscape:window-maximized="0" />
  <metadata
     id="metadata5">
    <rdf:RDF>
      <cc:Work
         rdf:about="">
        <dc:format>image/svg+xml</dc:format>
        <dc:type
           rdf:resource="http://purl.org/dc/dcmitype/StillImage" />
        <dc:title />
      </cc:Work>
    </rdf:RDF>
  </metadata>
  <g
     inkscape:label="Ebene 1"
     inkscape:groupmode="layer"
     id="layer1">
    <g
       style="fill:none"
       id="g844"
       transform="matrix(6.4219951,0,0,6.4219951,-12.541609,-9.3306112)">
      <g
         id="g912"
         transform="matrix(0.25896944,0,0,0.25896944,6.2847335,5.7847334)">
        <line
           class="a"
           x1="27.8736"
           y1="42.431599"
           x2="35.512501"
           y2="19.4825"
           id="line884"
           style="stroke:#005c91;stroke-opacity:0.56797022" />
        <line
           class="a"
           x1="42.8349"
           y1="42.5"
           x2="35.512501"
           y2="19.4825"
           id="line886"
           style="stroke:#005c91;stroke-opacity:0.56797022" />
        <line
           class="a"
           x1="40.385399"
           y1="34.800201"
           x2="30.413799"
           y2="34.800201"
           id="line888"
           style="stroke:#005c91;stroke-opacity:0.56797022" />
        <line
           class="a"
           x1="5.1651001"
           y1="10.5821"
           x2="30.817699"
           y2="10.5821"
           id="line890"
           style="stroke:#005c91;stroke-opacity:0.56797022" />
        <line
           class="a"
           x1="17.9914"
           y1="5.5"
           x2="17.9914"
           y2="10.5821"
           id="line892"
           style="stroke:#005c91;stroke-opacity:0.56797022" />
        <path
           class="a"
           d="m 25.1709,10.5821 c 0,7.0182 -8.1475,18.6344 -16.295,20.4091"
           id="path894"
           style="stroke:#005c91;stroke-opacity:0.56797022" />
        <path
           class="a"
           d="m 10.1666,16.9549 c 0.8067,4.84 9.1962,12.907 16.658,14.0363"
           id="path896"
           style="stroke:#005c91;stroke-opacity:0.56797022" />
      </g>
      <g
         style="fill:#005c91;fill-opacity:0.5102421"
         id="g924"
         transform="matrix(-0.05659999,0,0,0.05659999,20.945964,3.5540363)">
        <path
           d="m 278.491,219.385 c -1.056,-4.006 -5.158,-6.399 -9.163,-5.342 -4.006,1.055 -6.397,5.158 -5.342,9.163 l 14.056,53.35 -52.655,-13.874 c -1.984,-0.523 -4.099,-0.21 -5.847,0.868 -21.111,13.014 -45.427,19.893 -70.319,19.893 C 75.211,283.443 15,223.232 15,149.222 15,75.212 75.211,15 149.222,15 c 74.011,0 134.222,60.211 134.222,134.222 0,8.925 -0.884,17.849 -2.627,26.522 -0.816,4.061 1.814,8.014 5.875,8.831 4.061,0.813 8.015,-1.815 8.831,-5.875 1.938,-9.644 2.921,-19.562 2.921,-29.477 C 298.443,66.94 231.503,0 149.222,0 66.941,0 0,66.94 0,149.222 c 0,82.282 66.94,149.222 149.222,149.222 26.586,0 52.585,-7.061 75.405,-20.45 l 62.035,16.346 c 2.582,0.679 5.328,-0.063 7.214,-1.949 1.886,-1.886 2.629,-4.634 1.949,-7.214 z"
           id="path914"
           style="fill:#005c91;fill-opacity:0.5102421" />
      </g>
    </g>
  </g>
</svg>
